# xmcd
#
# Track frame offsets:
#	150
#	19877
#	35829
#
# Disc length: 717 seconds
#
# Revision: 1
# Processed by: cddbd v1.4PL0 Copyright (c) Steve Scherf et al.
# Submitted via: CDmax 1.9
#
DISCID=2102cb03
DTITLE=Alicia Keys - How Come You Don't Call Me - CD Maxi
DYEAR=2002
DGENRE=R&b
TTITLE0=How Come You Don't Call Me (Neptunes Remix)
TTITLE1=How Come You Don't Call Me (Original Radio Version)
TTITLE2=How Come You Don't Call Me (Album Version)
EXTD=
EXTT0=
EXTT1=
EXTT2=
PLAYORDER=
